<?xml version="1.0" encoding="UTF-8" standalone="no"?>
<!-- Creator: CorelDRAW -->

<svg
   style="clip-rule:evenodd;fill-rule:evenodd;image-rendering:optimizeQuality;shape-rendering:geometricPrecision;text-rendering:geometricPrecision"
   xml:space="preserve"
   viewBox="0 0 5.6847296 5.6847295"
   version="1.1"
   id="svg100"
   sodipodi:docname="logo.svg"
   inkscape:version="1.2.1 (9c6d41e410, 2022-07-14)"
   width="568.47296"
   height="568.47296"
   inkscape:export-filename="logo.png"
   inkscape:export-xdpi="96"
   inkscape:export-ydpi="96"
   xmlns:inkscape="http://www.inkscape.org/namespaces/inkscape"
   xmlns:sodipodi="http://sodipodi.sourceforge.net/DTD/sodipodi-0.dtd"
   xmlns="http://www.w3.org/2000/svg"
   xmlns:svg="http://www.w3.org/2000/svg"
   xmlns:rdf="http://www.w3.org/1999/02/22-rdf-syntax-ns#"
   xmlns:cc="http://creativecommons.org/ns#"
   xmlns:dc="http://purl.org/dc/elements/1.1/"><sodipodi:namedview
   id="namedview102"
   pagecolor="#ffffff"
   bordercolor="#999999"
   borderopacity="1"
   inkscape:showpageshadow="0"
   inkscape:pageopacity="0"
   inkscape:pagecheckerboard="0"
   inkscape:deskcolor="#d1d1d1"
   showgrid="false"
   inkscape:zoom="0.49899968"
   inkscape:cx="319.63948"
   inkscape:cy="367.73571"
   inkscape:window-width="1932"
   inkscape:window-height="1205"
   inkscape:window-x="38"
   inkscape:window-y="96"
   inkscape:window-maximized="0"
   inkscape:current-layer="Diagram" />
 <defs
   id="defs4"><rect
   x="710.70868"
   y="19.567793"
   width="3697.3452"
   height="528.99188"
   id="rect16364" /><rect
   x="44.482792"
   y="39.407909"
   width="148.49448"
   height="201.93454"
   id="rect9654" />
  <style
   type="text/css"
   id="style2">
    .str0 {stroke:#4D4948;stroke-width:0.0789033}
    .str1 {stroke:#00923F;stroke-width:0.157829}
    .str2 {stroke:#E77817;stroke-width:0.31568;stroke-linecap:round}
    .fil3 {fill:none}
    .fil4 {fill:#174989}
    .fil1 {fill:#4D4948}
    .fil2 {fill:#B6DDC7}
    .fil5 {fill:#DA251D}
    .fil0 {fill:black;fill-rule:nonzero}
  </style>
 </defs>
<symbol
   id="Im1-1-0"
   viewBox="-8.07093 -61.1901 4.62221 2.24502">
 <path
   class="fil0"
   d="m -5.245,-60.137 v 0.01515 c -0.045995,-0.03054 -0.081856,-0.07541 -0.10763,-0.13447 -0.02566,-0.05906 -0.038478,-0.12378 -0.038478,-0.19405 0,-0.07302 0.013557,-0.13953 0.040492,-0.19955 0.027002,-0.06004 0.062237,-0.10298 0.10562,-0.12884 v 0.01479 c -0.0217,0.016 -0.039485,0.03778 -0.05349,0.06557 -0.013915,0.02765 -0.024318,0.06291 -0.031186,0.10548 -0.00685,0.04271 -0.010291,0.08723 -0.010291,0.13342 0,0.05244 0.00315,0.09971 0.00949,0.14206 0.00633,0.04235 0.016085,0.07736 0.029083,0.10514 0.01311,0.0279 0.031901,0.05293 0.056398,0.0753 z m 1.6502,-0.62698 v -0.01479 c 0.046062,0.03031 0.081946,0.07505 0.10761,0.13412 0.02566,0.05906 0.038478,0.12378 0.038478,0.19405 0,0.07302 -0.013468,0.13966 -0.04047,0.1998 -0.027024,0.06016 -0.062259,0.10309 -0.10562,0.12895 v -0.01514 c 0.021857,-0.016 0.039754,-0.0379 0.053736,-0.06557 0.013915,-0.02765 0.024318,-0.0628 0.031096,-0.10537 0.00678,-0.04246 0.010224,-0.08709 0.010224,-0.13353 0,-0.05219 -0.00318,-0.09949 -0.00942,-0.14194 -0.00631,-0.04235 -0.015973,-0.07747 -0.029172,-0.10526 -0.01311,-0.0279 -0.031991,-0.05293 -0.056465,-0.0753 z"
   id="path6" />
 <path
   class="fil0"
   d="m -8.0316,-59.633 v -0.8868 h 0.70906 v 0.8868 z m 0.022237,-0.02224 h 0.6646 v -0.84232 h -0.6646 z"
   id="path8" />
 <polygon
   points="-7.5911,-60.946 -7.5911,-60.972 -7.3083,-60.972 -7.3083,-60.946 "
   class="fil0"
   id="polygon10" />
 <path
   class="fil0"
   d="m -7.7237,-59.156 h 0.2828 v 0.0262 h -0.2828 z m 0,0.10051 h 0.2828 v 0.02667 h -0.2828 z"
   id="path12" />
 <polygon
   points="-6.4736,-60.406 -6.4736,-60.433 -6.1908,-60.433 -6.1908,-60.406 "
   class="fil0"
   id="polygon14" />
 <path
   class="fil0"
   d="m -7.2617,-61.147 0.088858,-0.0434 h 0.00893 v 0.30854 c 0,0.0204 8.277e-4,0.03318 0.00248,0.03826 0.00174,0.005 0.00532,0.0088 0.010649,0.01159 0.00544,0.0027 0.016353,0.0042 0.032908,0.0046 v 0.0099 h -0.1374 v -0.0099 c 0.017271,-3.58e-4 0.028411,-0.0018 0.033467,-0.0045 0.00494,-0.0026 0.00843,-0.0061 0.010447,-0.01049 0.00195,-0.0044 0.00295,-0.01756 0.00295,-0.03944 v -0.19727 c 0,-0.02658 -9.172e-4,-0.04358 -0.00266,-0.05112 -0.0013,-0.0058 -0.0036,-0.01002 -0.00691,-0.01271 -0.00329,-0.0027 -0.00723,-0.004 -0.011924,-0.004 -0.00662,0 -0.015906,0.0028 -0.027763,0.0084 l -0.00403,-0.0084 z"
   id="path16" />
 <path
   class="fil0"
   d="m -7.3916,-59.132 c 0,-0.04165 0.00624,-0.07754 0.018837,-0.10761 0.012595,-0.03007 0.029217,-0.05251 0.050089,-0.06723 0.016174,-0.01168 0.032819,-0.01756 0.050089,-0.01756 0.027942,0 0.053109,0.01436 0.075369,0.04286 0.027852,0.03539 0.041722,0.08331 0.041722,0.14391 0,0.04239 -0.00606,0.07834 -0.0183,0.10796 -0.012192,0.02971 -0.02774,0.05123 -0.046689,0.06456 -0.018926,0.01342 -0.037226,0.02004 -0.054854,0.02004 -0.034742,0 -0.063803,-0.02051 -0.086957,-0.06172 -0.019575,-0.03465 -0.029306,-0.0764 -0.029306,-0.12523 z m 0.052751,0.0067 c 0,0.05029 0.00615,0.09141 0.018568,0.12313 0.010201,0.02676 0.025548,0.04018 0.045772,0.04018 0.00975,0 0.019754,-0.0044 0.030134,-0.01304 0.010492,-0.0087 0.018389,-0.02336 0.023714,-0.04378 0.00828,-0.0309 0.012416,-0.0745 0.012416,-0.13067 0,-0.04165 -0.00432,-0.07642 -0.012975,-0.1043 -0.00642,-0.02069 -0.014787,-0.0353 -0.024989,-0.04396 -0.00736,-0.0059 -0.016264,-0.0088 -0.026644,-0.0088 -0.012237,0 -0.023087,0.0054 -0.032617,0.01635 -0.012886,0.0149 -0.0217,0.03837 -0.026398,0.07036 -0.0047,0.03201 -0.00698,0.06345 -0.00698,0.09454 z"
   id="path18" />
 <polygon
   points="-4.6932,-60.66 -4.6716,-60.66 -4.8038,-60.27 -4.8253,-60.27 "
   class="fil0"
   id="polygon20" />
 <path
   class="fil0"
   d="m -7.8975,-61.183 0.11277,0.28646 0.061118,-0.21398 c 0.00506,-0.01758 0.00754,-0.03119 0.00754,-0.04094 0,-0.0066 -0.0023,-0.01186 -0.007,-0.01564 -0.00468,-0.0038 -0.013311,-0.0056 -0.026085,-0.0056 -0.00213,0 -0.00441,-8.9e-5 -0.00671,-2.91e-4 l 0.00293,-0.01002 h 0.11738 l -0.00322,0.01002 c -0.012237,-1.79e-4 -0.02123,0.001 -0.027203,0.0038 -0.00846,0.0038 -0.01472,0.0086 -0.018859,0.01452 -0.00568,0.0085 -0.011566,0.02318 -0.01745,0.04416 l -0.085928,0.30125 h -0.00966 l -0.1215,-0.30825 -0.064876,0.22769 c -0.00479,0.0172 -0.00727,0.03045 -0.00727,0.03955 0,0.0069 0.00221,0.01204 0.00662,0.01553 0.00441,0.0035 0.014877,0.0059 0.031342,0.0072 l -0.00266,0.0099 h -0.1147 l 0.00376,-0.0099 c 0.014318,-3.58e-4 0.023982,-0.0017 0.028859,-0.0038 0.00736,-0.0033 0.012774,-0.0075 0.016376,-0.01271 0.00521,-0.0079 0.011007,-0.02318 0.017539,-0.04579 l 0.072416,-0.25409 c -0.00698,-0.01076 -0.014519,-0.01821 -0.022505,-0.02224 -0.00801,-0.004 -0.020425,-0.0063 -0.037315,-0.0068 l 0.00302,-0.01002 h 0.091275 z"
   id="path22" />
 <path
   class="fil0"
   d="m -7.9244,-59.195 -0.035772,0.12257 c 0.033557,-0.05011 0.059284,-0.08313 0.077114,-0.09895 0.01783,-0.01573 0.035011,-0.02362 0.051543,-0.02362 0.00902,0 0.016376,0.0029 0.022259,0.0088 0.00579,0.006 0.00875,0.01371 0.00875,0.02318 0,0.01076 -0.00257,0.02519 -0.00783,0.04313 l -0.032796,0.11338 c -0.00387,0.01315 -0.0057,0.02116 -0.0057,0.024 0,0.0025 7.383e-4,0.0046 0.0021,0.0064 0.00148,0.0017 0.00304,0.0026 0.00461,0.0026 0.00221,0 0.00479,-0.0012 0.00781,-0.0035 0.00955,-0.0075 0.019933,-0.01904 0.031253,-0.0345 l 0.00837,0.0051 c -0.016734,0.02391 -0.03255,0.04103 -0.047427,0.05123 -0.010403,0.007 -0.019776,0.01049 -0.027964,0.01049 -0.00669,0 -0.011924,-0.002 -0.015884,-0.0061 -0.00396,-0.004 -0.00597,-0.0095 -0.00597,-0.01626 0,-0.0087 0.00304,-0.02345 0.00919,-0.04443 l 0.031253,-0.10832 c 0.00394,-0.01342 0.00588,-0.024 0.00588,-0.03154 0,-0.0036 -0.00121,-0.0065 -0.00349,-0.0087 -0.0023,-0.0022 -0.00526,-0.0034 -0.00866,-0.0034 -0.00497,0 -0.011029,0.0022 -0.018009,0.0065 -0.013333,0.0081 -0.027114,0.02143 -0.041432,0.04 -0.014362,0.01859 -0.02953,0.0423 -0.045503,0.07127 -0.00846,0.01528 -0.015458,0.03192 -0.021074,0.05013 l -0.0134,0.04441 h -0.040447 l 0.048993,-0.16866 c 0.00579,-0.02031 0.00864,-0.03255 0.00864,-0.0366 0,-0.004 -0.00157,-0.0074 -0.0047,-0.0104 -0.00311,-0.0029 -0.00707,-0.0045 -0.011678,-0.0045 -0.00217,0 -0.00595,3.8e-4 -0.011365,0.0011 l -0.010224,0.0017 -0.00157,-0.0097 0.093131,-0.01664 z"
   id="path24" />
 <path
   class="fil0"
   d="m -4.384,-60.643 0.11277,0.28646 0.06114,-0.21398 c 0.00506,-0.01758 0.00754,-0.03119 0.00754,-0.04094 0,-0.0066 -0.0023,-0.01186 -0.007,-0.01564 -0.00468,-0.0038 -0.013333,-0.0056 -0.026085,-0.0056 -0.00213,0 -0.00441,-8.9e-5 -0.00671,-2.91e-4 l 0.00293,-0.01002 h 0.11738 l -0.00322,0.01002 c -0.012237,-1.79e-4 -0.021253,10e-4 -0.027226,0.0038 -0.00843,0.0038 -0.014698,0.0086 -0.018837,0.01452 -0.00568,0.0085 -0.011588,0.02318 -0.017472,0.04416 l -0.085928,0.30125 h -0.00964 l -0.1215,-0.30825 -0.064899,0.22769 c -0.00479,0.0172 -0.00727,0.03045 -0.00727,0.03955 0,0.0069 0.00221,0.01204 0.00662,0.01553 0.00441,0.0035 0.014899,0.0059 0.031364,0.0072 l -0.00266,0.0099 h -0.11472 l 0.00376,-0.0099 c 0.01434,-3.58e-4 0.024004,-0.0017 0.028881,-0.0038 0.00734,-0.0033 0.012752,-0.0075 0.016353,-0.01271 0.00523,-0.0079 0.011029,-0.02318 0.017561,-0.04579 l 0.072416,-0.25409 c -0.007,-0.01076 -0.014541,-0.01821 -0.022505,-0.02224 -0.00801,-0.004 -0.020425,-0.0063 -0.037338,-0.0068 l 0.00302,-0.01002 H -4.384 Z m -0.70015,0.12159 -0.035772,0.12257 c 0.033557,-0.05011 0.059284,-0.08313 0.077114,-0.09895 0.017852,-0.01573 0.035011,-0.02362 0.051566,-0.02362 0.00902,0 0.016353,0.0029 0.022237,0.0088 0.00579,0.006 0.00875,0.01371 0.00875,0.02318 0,0.01076 -0.00257,0.02519 -0.00783,0.04313 l -0.032796,0.11338 c -0.00387,0.01315 -0.0057,0.02116 -0.0057,0.024 0,0.0025 7.383e-4,0.0046 0.0021,0.0064 0.00148,0.0017 0.00304,0.0026 0.00461,0.0026 0.00221,0 0.00479,-0.0012 0.00781,-0.0035 0.00957,-0.0075 0.019933,-0.01904 0.031253,-0.0345 l 0.00837,0.0051 c -0.016734,0.02392 -0.032528,0.04103 -0.047427,0.05123 -0.010403,0.007 -0.019776,0.01049 -0.027942,0.01049 -0.00671,0 -0.011946,-0.002 -0.015906,-0.0061 -0.00396,-0.004 -0.00597,-0.0095 -0.00597,-0.01626 0,-0.0087 0.00304,-0.02344 0.00919,-0.04443 l 0.031253,-0.10832 c 0.00394,-0.01342 0.00588,-0.024 0.00588,-0.03154 0,-0.0036 -0.00121,-0.0065 -0.00349,-0.0087 -0.0023,-0.0022 -0.00526,-0.0034 -0.00866,-0.0034 -0.00497,0 -0.011007,0.0022 -0.018009,0.0065 -0.013333,0.0081 -0.027114,0.02143 -0.041432,0.04 -0.014362,0.01859 -0.029508,0.0423 -0.045503,0.07127 -0.00846,0.01528 -0.015458,0.03192 -0.021074,0.05013 l -0.0134,0.04441 h -0.040425 l 0.048993,-0.16866 c 0.00577,-0.02031 0.00861,-0.03255 0.00861,-0.0366 0,-0.004 -0.00157,-0.0074 -0.0047,-0.0104 -0.00309,-0.0029 -0.00705,-0.0045 -0.011655,-0.0045 -0.00219,0 -0.00597,3.8e-4 -0.011387,0.0011 l -0.010224,0.0017 -0.00157,-0.0097 z m -0.68252,-0.10696 c 0.00754,0 0.01387,0.0026 0.019127,0.0078 0.00515,0.0052 0.00781,0.0115 0.00781,0.01913 0,0.0074 -0.00266,0.01362 -0.00801,0.01895 -0.00523,0.0053 -0.011588,0.0079 -0.018926,0.0079 -0.00736,0 -0.013691,-0.0026 -0.019016,-0.0079 -0.00526,-0.0053 -0.00792,-0.01159 -0.00792,-0.01895 0,-0.0076 0.00257,-0.01396 0.00781,-0.01913 0.00517,-0.0052 0.011566,-0.0078 0.019127,-0.0078 z m 0.00349,0.10696 -0.053311,0.18879 c -0.00358,0.01277 -0.00541,0.0204 -0.00541,0.02289 0,0.003 8.277e-4,0.0053 0.00257,0.0071 0.00172,0.0017 0.00376,0.0027 0.00604,0.0027 0.00268,0 0.00588,-0.0015 0.00966,-0.0043 0.010291,-0.0081 0.020604,-0.0196 0.030962,-0.0345 l 0.00949,0.0062 c -0.012237,0.01866 -0.026555,0.03439 -0.043109,0.04718 -0.012215,0.0096 -0.023892,0.01425 -0.035011,0.01425 -0.00736,0 -0.013333,-0.0022 -0.018009,-0.0065 -0.0047,-0.0044 -0.00698,-0.0099 -0.00698,-0.01664 0,-0.0066 0.00219,-0.01765 0.00671,-0.03311 l 0.035011,-0.12074 c 0.0057,-0.01969 0.00861,-0.0321 0.00861,-0.03716 0,-0.004 -0.00136,-0.0072 -0.00421,-0.0097 -0.00275,-0.0026 -0.00662,-0.0038 -0.011409,-0.0038 -0.00394,0 -0.012125,9.17e-4 -0.024541,0.0029 v -0.01047 l 0.09293,-0.01508 z m 0.18418,-0.13933 -0.076465,0.26485 0.030693,-0.02613 c 0.033534,-0.02841 0.055324,-0.04937 0.065436,-0.06309 0.00322,-0.0045 0.00477,-0.0079 0.00477,-0.0102 0,-0.0017 -4.474e-4,-0.0031 -0.00154,-0.0046 -0.00112,-0.0015 -0.00322,-0.0026 -0.00635,-0.0035 -0.00313,-9.18e-4 -0.00864,-0.0014 -0.016532,-0.0014 h -0.00946 l 0.00293,-0.01022 h 0.11774 l -0.00275,0.01022 c -0.013445,7.38e-4 -0.025011,0.0028 -0.034832,0.0063 -0.00975,0.0035 -0.019217,0.0087 -0.028411,0.01555 -0.018098,0.01342 -0.030067,0.0228 -0.035861,0.02796 l -0.023154,0.02049 c 0.00396,0.01297 0.00884,0.03101 0.014631,0.05416 0.00964,0.03846 0.016152,0.06125 0.019575,0.06843 0.00349,0.0072 0.00698,0.01076 0.010559,0.01076 0.00304,0 0.00662,-0.0015 0.010761,-0.0046 0.00926,-0.0068 0.019284,-0.01765 0.029866,-0.03255 l 0.00949,0.0067 c -0.019597,0.02465 -0.034586,0.04083 -0.045056,0.04866 -0.01038,0.0078 -0.019866,0.01168 -0.028501,0.01168 -0.00752,0 -0.0134,-0.003 -0.017539,-0.0088 -0.00718,-0.01067 -0.019127,-0.05242 -0.035749,-0.12535 l -0.036957,0.0321 -0.027673,0.09564 H -5.73137 l 0.089328,-0.30742 0.00754,-0.02611 c 9.172e-4,-0.0045 0.00139,-0.0085 0.00139,-0.01188 0,-0.0043 -0.00166,-0.0079 -0.00497,-0.01076 -0.00331,-0.0028 -0.00819,-0.0043 -0.014452,-0.0043 -0.00409,0 -0.010626,9.17e-4 -0.019642,0.0027 v -0.0094 l 0.093198,-0.01591 z"
   id="path26" />
 <path
   class="fil0"
   d="m -6.8633,-60.025 c -0.00221,0.01546 -0.00331,0.02821 -0.00331,0.03848 0,0.02727 0.00978,0.0506 0.029127,0.06998 0.019396,0.01924 0.042863,0.02886 0.070581,0.02886 0.022237,0 0.04349,-0.0046 0.063982,-0.01371 0.020492,-0.009 0.050917,-0.02917 0.091252,-0.06022 l 0.0096,0.0134 c -0.072952,0.07237 -0.14244,0.10846 -0.20863,0.10846 -0.044877,0 -0.078769,-0.01418 -0.10161,-0.04239 -0.022684,-0.02839 -0.034027,-0.0596 -0.034027,-0.0938 0,-0.04588 0.014004,-0.09286 0.042371,-0.14094 0.028367,-0.04794 0.063825,-0.0853 0.10667,-0.11195 0.042707,-0.02664 0.086823,-0.03989 0.13206,-0.03989 0.032595,0 0.056733,0.0066 0.07246,0.01987 0.015615,0.01324 0.02349,0.02886 0.02349,0.04698 0,0.0257 -0.010089,0.05013 -0.030425,0.07347 -0.026778,0.03058 -0.066174,0.05519 -0.11816,0.07394 -0.034496,0.01262 -0.083042,0.02255 -0.14541,0.02949 z m 0.00315,-0.02255 c 0.045525,-0.0052 0.082706,-0.01418 0.11123,-0.0268 0.037964,-0.01687 0.066331,-0.0372 0.085234,-0.06069 0.018904,-0.02365 0.028367,-0.04602 0.028367,-0.06732 0,-0.01293 -0.00412,-0.02333 -0.012304,-0.03136 -0.00801,-0.0081 -0.019687,-0.01199 -0.03481,-0.01199 -0.031364,0 -0.064608,0.01671 -0.099888,0.05013 -0.035302,0.03342 -0.06114,0.08277 -0.07783,0.14803 z"
   id="path28" />
 <path
   class="fil0"
   d="m -5.8136,-60.524 -0.013356,0.0391 h -0.065167 c -0.020313,0.0411 -0.036912,0.08054 -0.049798,0.11825 -0.00635,0.01859 -0.00765,0.03181 -0.00392,0.03973 0.00378,0.008 0.01038,0.01204 0.020134,0.01204 0.00772,0 0.015347,-0.0027 0.022975,-0.0081 0.00756,-0.0054 0.013892,-0.01327 0.01906,-0.02347 h 0.00937 c -0.012752,0.02841 -0.026376,0.04839 -0.040828,0.06007 -0.014497,0.01166 -0.028344,0.01754 -0.041409,0.01754 -0.014072,0 -0.023445,-0.0064 -0.028479,-0.01911 -0.00501,-0.0128 -0.00145,-0.0366 0.01047,-0.07148 0.00747,-0.02188 0.025168,-0.06371 0.053087,-0.1255 h -0.070022 c -0.037718,0.09416 -0.064854,0.15367 -0.081297,0.17866 -0.016331,0.02494 -0.031543,0.03743 -0.045324,0.03743 -0.00644,0 -0.011029,-0.0022 -0.013803,-0.0064 -0.00275,-0.0043 -0.00302,-0.0098 -8.277e-4,-0.01617 0.00161,-0.0047 0.00374,-0.0087 0.00629,-0.01215 0.00362,-0.0047 0.010089,-0.01123 0.019418,-0.01969 0.015906,-0.01454 0.028725,-0.0298 0.038523,-0.04579 0.017047,-0.02732 0.035302,-0.06595 0.054675,-0.11586 h -0.012416 c -0.013042,0 -0.023624,0.0022 -0.031521,0.0065 -0.012595,0.0064 -0.025839,0.0172 -0.039619,0.03228 h -0.010492 c 0.020738,-0.0311 0.039731,-0.0525 0.057315,-0.06436 0.013266,-0.009 0.029239,-0.01354 0.047718,-0.01354 h 0.18924 z"
   id="path30" />
</symbol>
 <g
   id="Diagram">
  <path
   class="fil1 str0"
   d="m 1.5001,0.60528 h 2.6846 c 0.49288,0 0.89485,0.40197 0.89485,0.89485 v 2.6846 c 0,0.49288 -0.40197,0.89485 -0.89485,0.89485 H 1.5001 c -0.49288,0 -0.89485,-0.40197 -0.89485,-0.89485 v -2.6846 c 0,-0.49288 0.40197,-0.89485 0.89485,-0.89485 z"
   id="path33" />
  <path
   class="fil2 str1"
   d="m 1.6791,1.0974 h 2.3266 c 0.32038,0 0.58165,0.26127 0.58165,0.58165 v 2.3266 c 0,0.32038 -0.26127,0.58165 -0.58165,0.58165 H 1.6791 c -0.32038,0 -0.58165,-0.26127 -0.58165,-0.58165 v -2.3266 c 0,-0.32038 0.26127,-0.58165 0.58165,-0.58165 z"
   id="path35" />
  <line
   y1="3.7372"
   x2="0.15785"
   x1="0.60527998"
   y2="3.7372"
   class="fil3 str2"
   id="line37"
   style="stroke:#75b1e1;stroke-opacity:1" />
  <line
   y1="3.2895"
   x2="0.15785"
   x1="0.60527998"
   y2="3.2895"
   class="fil3 str2"
   id="line39"
   style="stroke:#75b1e1;stroke-opacity:1" />
  <line
   y1="2.395"
   x2="0.15785"
   x1="0.60527998"
   y2="2.395"
   class="fil3 str2"
   id="line41"
   style="stroke:#75b1e1;stroke-opacity:1" />
  <line
   y1="2.842"
   x2="0.15785"
   x1="0.60527998"
   y2="2.842"
   class="fil3 str2"
   id="line43"
   style="stroke:#75b1e1;stroke-opacity:1" />
  <line
   y1="1.9471999"
   x2="0.15785"
   x1="0.60527998"
   y2="1.9471999"
   class="fil3 str2"
   id="line45"
   style="stroke:#75b1e1;stroke-opacity:1" />
  <line
   y1="1.4998"
   x2="0.15785"
   x1="0.60527998"
   y2="1.4998"
   class="fil3 str2"
   id="line47"
   style="stroke:#75b1e1;stroke-opacity:1" />
  <line
   y1="4.1845002"
   x2="0.15785"
   x1="0.60527998"
   y2="4.1845002"
   class="fil3 str2"
   id="line49"
   style="stroke:#75b1e1;stroke-opacity:1" />
  <line
   y1="3.7372"
   x2="5.0795002"
   x1="5.5268998"
   y2="3.7372"
   class="fil3 str2"
   id="line51"
   style="stroke:#75b1e1;stroke-opacity:1" />
  <line
   y1="3.2895"
   x2="5.0795002"
   x1="5.5268998"
   y2="3.2895"
   class="fil3 str2"
   id="line53"
   style="stroke:#75b1e1;stroke-opacity:1" />
  <line
   y1="2.395"
   x2="5.0795002"
   x1="5.5268998"
   y2="2.395"
   class="fil3 str2"
   id="line55"
   style="stroke:#75b1e1;stroke-opacity:1" />
  <line
   y1="2.842"
   x2="5.0795002"
   x1="5.5268998"
   y2="2.842"
   class="fil3 str2"
   id="line57"
   style="stroke:#75b1e1;stroke-opacity:1" />
  <line
   y1="1.9471999"
   x2="5.0795002"
   x1="5.5268998"
   y2="1.9471999"
   class="fil3 str2"
   id="line59"
   style="stroke:#75b1e1;stroke-opacity:1" />
  <line
   y1="1.4998"
   x2="5.0795002"
   x1="5.5268998"
   y2="1.4998"
   class="fil3 str2"
   id="line61"
   style="stroke:#75b1e1;stroke-opacity:1" />
  <line
   y1="4.1845002"
   x2="5.0795002"
   x1="5.5268998"
   y2="4.1845002"
   class="fil3 str2"
   id="line63"
   style="stroke:#75b1e1;stroke-opacity:1" />
  <line
   y1="5.5268998"
   x2="1.9476"
   x1="1.9476"
   y2="5.0795002"
   class="fil3 str2"
   id="line65"
   style="stroke:#75b1e1;stroke-opacity:1" />
  <line
   y1="5.5268998"
   x2="2.3952999"
   x1="2.3952999"
   y2="5.0795002"
   class="fil3 str2"
   id="line67"
   style="stroke:#75b1e1;stroke-opacity:1" />
  <line
   y1="5.5268998"
   x2="3.2897999"
   x1="3.2897999"
   y2="5.0795002"
   class="fil3 str2"
   id="line69"
   style="stroke:#75b1e1;stroke-opacity:1" />
  <line
   y1="5.5268998"
   x2="2.8427999"
   x1="2.8427999"
   y2="5.0795002"
   class="fil3 str2"
   id="line71"
   style="stroke:#75b1e1;stroke-opacity:1" />
  <line
   y1="5.5268998"
   x2="3.7376001"
   x1="3.7376001"
   y2="5.0795002"
   class="fil3 str2"
   id="line73"
   style="stroke:#75b1e1;stroke-opacity:1" />
  <line
   y1="5.5268998"
   x2="4.1849999"
   x1="4.1849999"
   y2="5.0795002"
   class="fil3 str2"
   id="line75"
   style="stroke:#75b1e1;stroke-opacity:1" />
  <line
   y1="5.5268998"
   x2="1.5003"
   x1="1.5003"
   y2="5.0795002"
   class="fil3 str2"
   id="line77"
   style="stroke:#75b1e1;stroke-opacity:1" />
  <line
   y1="0.60527998"
   x2="1.9474"
   x1="1.9474"
   y2="0.15785"
   class="fil3 str2"
   id="line79"
   style="stroke:#75b1e1;stroke-opacity:1" />
  <line
   y1="0.60527998"
   x2="2.3952"
   x1="2.3952"
   y2="0.15785"
   class="fil3 str2"
   id="line81"
   style="stroke:#75b1e1;stroke-opacity:1" />
  <line
   y1="0.60527998"
   x2="3.2895999"
   x1="3.2895999"
   y2="0.15785"
   class="fil3 str2"
   id="line83"
   style="stroke:#75b1e1;stroke-opacity:1" />
  <line
   y1="0.60527998"
   x2="2.8426001"
   x1="2.8426001"
   y2="0.15785"
   class="fil3 str2"
   id="line85"
   style="stroke:#75b1e1;stroke-opacity:1" />
  <line
   y1="0.60527998"
   x2="3.7374001"
   x1="3.7374001"
   y2="0.15785"
   class="fil3 str2"
   id="line87"
   style="stroke:#75b1e1;stroke-opacity:1" />
  <line
   y1="0.60527998"
   x2="4.1848001"
   x1="4.1848001"
   y2="0.15785"
   class="fil3 str2"
   id="line89"
   style="stroke:#75b1e1;stroke-opacity:1" />
  <line
   y1="0.60527998"
   x2="1.5001"
   x1="1.5001"
   y2="0.15785"
   class="fil3 str2"
   id="line91"
   style="stroke:#75b1e1;stroke-opacity:1" />
  <path
   class="fil4"
   d="M 4.4212,2.8523 2.1907,4.3581 1.48428,3.3104 3.71658,1.8063 4.42116,2.8522 Z M 3.74035,1.98345 3.681939,1.897656 3.574239,1.970676 3.630816,2.05647 3.740346,1.98345 Z M 4.32446,2.84863 4.266026,2.762836 4.158326,2.835833 4.214925,2.923461 4.324455,2.848629 Z M 3.49209,2.15139 3.433701,2.065596 3.326001,2.138593 3.382555,2.224387 3.492085,2.15139 Z M 4.0762,3.01655 4.017789,2.930756 3.910089,3.003798 3.966666,3.089547 4.076196,3.01655 Z M 3.24388,2.31747 3.185446,2.231676 3.075916,2.306508 3.13435,2.392302 Z M 4.23499,2.72635 3.76226,2.02544 2.78752,2.68255 3.26029,3.3853 4.23498,2.72636 Z M 3.82797,3.18451 3.769536,3.098716 3.660006,3.171713 3.71844,3.257507 Z M 2.99563,2.48539 2.937196,2.399596 2.827716,2.472638 2.886105,2.560221 2.995635,2.485389 Z M 3.57972,3.35243 3.521286,3.266636 3.411806,3.339633 3.470195,3.425427 3.579725,3.35243 Z M 2.74738,2.65335 2.688991,2.567556 2.579461,2.640553 2.637895,2.726347 2.747375,2.65335 Z M 3.33147,3.52035 3.273081,3.432722 3.163551,3.507554 3.221985,3.593348 3.331465,3.520351 Z M 2.49917,2.82127 2.440736,2.735476 2.331206,2.808473 2.38964,2.894267 Z M 3.08326,3.68643 3.024826,3.600636 2.915296,3.673656 2.97373,3.761262 Z M 2.25092,2.98919 2.192531,2.903396 2.083001,2.976393 2.14139,3.062187 Z M 3.11975,3.48019 2.647,2.77744 1.67047,3.43638 2.14322,4.13729 3.11975,3.48018 Z M 2.83501,3.85435 2.776621,3.768601 2.667091,3.841598 2.72548,3.927392 Z M 2.00085,3.15527 1.944273,3.069476 1.834743,3.144308 1.893154,3.230102 2.000854,3.15527 Z M 2.58494,4.02231 2.528363,3.936516 2.418833,4.009513 2.477244,4.095307 2.584944,4.02231 Z M 1.7526,3.32319 1.696001,3.237441 1.586521,3.310438 1.64491,3.398021 1.75261,3.323189 Z M 2.33671,4.19023 2.280111,4.104436 2.170601,4.177433 2.22899,4.263227 Z"
   id="path93" />
  <path
   class="fil5"
   d="m 2.1787,1.3558 h 0.068366 c 0.015906,0.10776 0.038009,0.19823 0.064921,0.27143 0.027651,0.072505 0.059418,0.13537 0.096017,0.18716 0.036599,0.051812 0.091856,0.11879 0.16508,0.20098 0.073199,0.082192 0.13259,0.15125 0.17747,0.20857 0.13608,0.17407 0.20376,0.35637 0.20376,0.5463 0,0.19546 -0.082863,0.43306 -0.24933,0.71275 H 2.660085 C 2.681517,3.433975 2.705677,3.37733 2.733977,3.3131 2.762299,3.248872 2.785789,3.19017 2.804424,3.13766 2.843126,3.03269 2.866594,2.9284 2.866594,2.82688 2.866594,2.746769 2.850017,2.66594 2.817556,2.58446 2.785095,2.502962 2.738832,2.42768 2.680126,2.3586 2.621424,2.289562 2.555116,2.23359 2.479836,2.19079 2.405228,2.147972 2.327896,2.124482 2.247066,2.11965 v 1.6009 c 0,0.09114 -0.0283,0.17197 -0.084228,0.24311 -0.055973,0.07114 -0.12709,0.1257 -0.21481,0.16369 -0.087024,0.037964 -0.17336,0.057315 -0.2583,0.057315 -0.082908,0 -0.15194,-0.020716 -0.20653,-0.062147 -0.054541,-0.041454 -0.08217,-0.10154 -0.08217,-0.18096 0,-0.08425 0.027628,-0.1623 0.082885,-0.23344 0.055928,-0.071118 0.12568,-0.12776 0.21065,-0.16852 0.084944,-0.041454 0.16714,-0.062147 0.24655,-0.062147 0.10982,0 0.18924,0.021409 0.23758,0.064921 v -1.4455 -0.74107 z"
   id="path95" />
 <text
   xml:space="preserve"
   transform="scale(0.01)"
   id="text9652"
   style="font-size:6.66667px;font-family:sans-serif;-inkscape-font-specification:sans-serif;white-space:pre;shape-inside:url(#rect9654);display:inline;fill:#75b1e1;fill-opacity:1;stroke:#75b1e1;stroke-opacity:1" /></g>
<metadata
   id="metadata98"><rdf:RDF><cc:Work><dc:format>image/svg+xml</dc:format><dc:type
         rdf:resource="http://purl.org/dc/dcmitype/StillImage" /><cc:license
         rdf:resource="http://creativecommons.org/publicdomain/zero/1.0/" /><dc:publisher><cc:Agent
           rdf:about="http://openclipart.org/"><dc:title>Openclipart</dc:title></cc:Agent></dc:publisher><dc:title>Multimedia Chip</dc:title><dc:date>2010-12-20T09:55:46</dc:date><dc:description>Multimedia Chip. Audio and Video encoding/decoding. (stylized)</dc:description><dc:source>https://openclipart.org/detail/101425/multimedia-chip-by-pgbrandolin</dc:source><dc:creator><cc:Agent><dc:title>pgbrandolin</dc:title></cc:Agent></dc:creator><dc:subject><rdf:Bag><rdf:li>chip</rdf:li><rdf:li>codec</rdf:li><rdf:li>decode</rdf:li><rdf:li>encode</rdf:li><rdf:li>hardware</rdf:li><rdf:li>sound</rdf:li><rdf:li>stb</rdf:li><rdf:li>video</rdf:li></rdf:Bag></dc:subject></cc:Work><cc:License
       rdf:about="http://creativecommons.org/publicdomain/zero/1.0/"><cc:permits
         rdf:resource="http://creativecommons.org/ns#Reproduction" /><cc:permits
         rdf:resource="http://creativecommons.org/ns#Distribution" /><cc:permits
         rdf:resource="http://creativecommons.org/ns#DerivativeWorks" /></cc:License></rdf:RDF></metadata></svg>
